<?xml version="1.0" encoding="UTF-8" standalone="no"?>
<!-- Created with Inkscape (http://www.inkscape.org/) -->

<svg
   width="210mm"
   height="297mm"
   viewBox="0 0 210 297"
   version="1.1"
   id="svg11540"
   inkscape:version="1.2.1 (9c6d41e410, 2022-07-14)"
   sodipodi:docname="Elf.svg"
   xmlns:inkscape="http://www.inkscape.org/namespaces/inkscape"
   xmlns:sodipodi="http://sodipodi.sourceforge.net/DTD/sodipodi-0.dtd"
   xmlns="http://www.w3.org/2000/svg"
   xmlns:svg="http://www.w3.org/2000/svg">
  <sodipodi:namedview
     id="namedview11542"
     pagecolor="#ffffff"
     bordercolor="#000000"
     borderopacity="0.25"
     inkscape:showpageshadow="2"
     inkscape:pageopacity="0.0"
     inkscape:pagecheckerboard="0"
     inkscape:deskcolor="#d1d1d1"
     inkscape:document-units="mm"
     showgrid="false"
     inkscape:zoom="0.72515432"
     inkscape:cx="165.48202"
     inkscape:cy="561.94935"
     inkscape:window-width="1920"
     inkscape:window-height="1001"
     inkscape:window-x="-9"
     inkscape:window-y="-9"
     inkscape:window-maximized="1"
     inkscape:current-layer="layer1" />
  <defs
     id="defs11537">
    <clipPath
       clipPathUnits="userSpaceOnUse"
       id="clipPath13979">
      <path
         id="path13981"
         style="fill:#ff0000;fill-opacity:1;fill-rule:nonzero;stroke:none;stroke-width:0.264583"
         d="m 54.82146,206.58119 v 10.68979 c 0.366162,-0.0299 0.718749,-0.11961 1.047999,-0.308 0.585433,-0.47609 1.197224,-0.92123 1.836581,-1.32963 0.698866,-0.45876 1.386748,-0.94486 2.027783,-1.48208 0.613709,-0.55544 1.289325,-1.04751 1.838129,-1.6707 0.389366,-0.52647 0.921369,-0.99136 1.185976,-1.5999 0.520764,-0.79641 0.884627,-1.67389 1.35082,-2.50011 0.421346,-0.67303 0.962411,-1.25292 1.535308,-1.79937 z m 18.080551,0 c 1.823479,0.79143 3.198654,1.70832 0.774629,2.8484 -0.780532,0.36711 -1.577428,0.64983 -2.43086,0.79375 -0.270629,0.0762 -0.519332,0.20889 -0.761193,0.32918 -0.339471,0.29317 -0.672393,0.65488 -0.998389,0.91881 -0.46536,0.77541 -0.765318,1.64375 -1.287775,2.389 -0.584176,1.01938 -1.28565,1.95648 -2.071708,2.83084 -0.769306,0.81594 -1.614411,1.54589 -2.47272,2.26652 -0.841062,0.6767 -1.704887,1.32883 -2.616893,1.9079 -0.863079,0.54674 -1.609442,1.25841 -2.534729,1.71359 -1.174594,0.52383 -2.398657,0.87423 -3.680913,0.90589 v 39.14955 h 50.89767 v -56.05343 z" />
    </clipPath>
    <clipPath
       clipPathUnits="userSpaceOnUse"
       id="clipPath13979-9">
      <path
         id="path13981-9"
         style="fill:#ff0000;fill-opacity:1;fill-rule:nonzero;stroke:none;stroke-width:0.264583"
         d="m 54.82146,206.58119 v 10.68979 c 0.366162,-0.0299 0.718749,-0.11961 1.047999,-0.308 0.585433,-0.47609 1.197224,-0.92123 1.836581,-1.32963 0.698866,-0.45876 1.386748,-0.94486 2.027783,-1.48208 0.613709,-0.55544 1.289325,-1.04751 1.838129,-1.6707 0.389366,-0.52647 0.921369,-0.99136 1.185976,-1.5999 0.520764,-0.79641 0.884627,-1.67389 1.35082,-2.50011 0.421346,-0.67303 0.962411,-1.25292 1.535308,-1.79937 z m 18.080551,0 c 1.823479,0.79143 3.198654,1.70832 0.774629,2.8484 -0.780532,0.36711 -1.577428,0.64983 -2.43086,0.79375 -0.270629,0.0762 -0.519332,0.20889 -0.761193,0.32918 -0.339471,0.29317 -0.672393,0.65488 -0.998389,0.91881 -0.46536,0.77541 -0.765318,1.64375 -1.287775,2.389 -0.584176,1.01938 -1.28565,1.95648 -2.071708,2.83084 -0.769306,0.81594 -1.614411,1.54589 -2.47272,2.26652 -0.841062,0.6767 -1.704887,1.32883 -2.616893,1.9079 -0.863079,0.54674 -1.609442,1.25841 -2.534729,1.71359 -1.174594,0.52383 -2.398657,0.87423 -3.680913,0.90589 v 39.14955 h 50.89767 v -56.05343 z" />
    </clipPath>
  </defs>
  <g
     inkscape:label="Layer 1"
     inkscape:groupmode="layer"
     id="layer1">
    <g
       id="g14127"
       transform="translate(18.972973,9.1216216)">
      <path
         style="fill:#008000;stroke:#00db00;stroke-width:1.37902;stroke-dasharray:none;stroke-opacity:1"
         d="m 35.554529,145.93475 c 11.985307,-8.96443 21.727858,-16.48026 21.650113,-16.70184 -0.200965,-0.57276 -11.456541,-14.8557 -12.009152,-15.2392 -0.622874,-0.43225 -44.146059,32.10853 -43.767956,32.7238 0.361561,0.58835 12.201477,15.581 12.276073,15.54495 0.03269,-0.0158 9.865617,-7.36327 21.850922,-16.32771 z"
         id="path13650" />
      <path
         style="fill:#008000;stroke:#00db00;stroke-width:1.37902;stroke-dasharray:none;stroke-opacity:1"
         d="m 140.20853,144.36653 c -11.98531,-8.96443 -21.72786,-16.48026 -21.65011,-16.70184 0.20096,-0.57276 11.45654,-14.8557 12.00915,-15.2392 0.62287,-0.43225 44.14606,32.10853 43.76796,32.7238 -0.36157,0.58835 -12.20148,15.581 -12.27608,15.54495 -0.0327,-0.0158 -9.86562,-7.36328 -21.85092,-16.32771 z"
         id="path13648" />
      <ellipse
         style="fill:#ffccaa;stroke:#deaa87;stroke-width:1.48559;stroke-opacity:1"
         id="path11596-9-01"
         cx="86.290543"
         cy="100.1554"
         rx="57.040989"
         ry="51.75045" />
      <ellipse
         style="fill:#ffccaa;stroke:#deaa87;stroke-width:0.305796;stroke-opacity:1"
         id="path11596-9-01-1"
         cx="119.12837"
         cy="199.03377"
         rx="11.840346"
         ry="10.563321" />
      <ellipse
         style="fill:#ffccaa;stroke:#deaa87;stroke-width:0.305796;stroke-opacity:1"
         id="path11596-9-01-1-6"
         cx="55.824333"
         cy="199.21622"
         rx="11.840346"
         ry="10.563321" />
      <ellipse
         style="fill:#ffffff;stroke:#cccccc;stroke-width:1.29908;stroke-opacity:1"
         id="path11596-9"
         cx="86.655396"
         cy="99.79055"
         rx="49.654514"
         ry="45.458569" />
      <ellipse
         style="fill:#008000;stroke:#00db00;stroke-width:1;stroke-opacity:1"
         id="path11596"
         cx="86.673538"
         cy="99.060822"
         rx="37.216217"
         ry="35.93919" />
      <ellipse
         style="fill:#ffffff;stroke:#cccccc;stroke-width:0.473283;stroke-opacity:1"
         id="path11596-9-0"
         cx="87.366997"
         cy="85.410141"
         rx="17.959305"
         ry="16.682278" />
      <g
         id="g13877"
         transform="translate(-1.2951576,-22.348538)">
        <path
           style="fill:#ffffff;stroke:#deaa87;stroke-width:1;stroke-dasharray:none;stroke-opacity:1"
           d="m 64.58108,174.59132 c 26.27027,32.47297 45.60811,0.72973 45.60811,0.72973 z"
           id="path13807" />
        <path
           style="fill:#ffffff;stroke:#deaa87;stroke-width:1;stroke-dasharray:none;stroke-opacity:1"
           d="m 71.148648,174.95618 7.662161,12.04054 9.486488,-11.67568 8.027027,11.67568 6.932436,-11.31081"
           id="path13873" />
      </g>
      <g
         id="g13812"
         transform="translate(0,-0.52916667)">
        <ellipse
           style="fill:#ffffff;stroke:#deaa87;stroke-width:0.270016;stroke-opacity:1"
           id="path13136"
           cx="66.770264"
           cy="149.95946"
           rx="13.500127"
           ry="6.2028298" />
        <ellipse
           style="fill:#ff0000;stroke:#ff0000;stroke-width:0.747612;stroke-opacity:1"
           id="path13212"
           cx="68.229736"
           cy="151.9662"
           rx="3.7748425"
           ry="3.5924101" />
        <ellipse
           style="fill:#2b0000;stroke:#000000;stroke-width:0.529265;stroke-opacity:1"
           id="path13212-2"
           cx="68.41217"
           cy="153.04266"
           rx="2.6069889"
           ry="2.6069891" />
      </g>
      <g
         id="g13817">
        <ellipse
           style="fill:#ffffff;stroke:#deaa87;stroke-width:0.270016;stroke-opacity:1"
           id="path13136-5"
           cx="107.27027"
           cy="149.22974"
           rx="13.500127"
           ry="6.2028298" />
        <ellipse
           style="fill:#ff0000;stroke:#ff0000;stroke-width:0.747612;stroke-opacity:1"
           id="path13212-8"
           cx="104.35136"
           cy="151.05405"
           rx="3.7748425"
           ry="3.5924101" />
        <ellipse
           style="fill:#2b0000;stroke:#000000;stroke-width:0.529265;stroke-opacity:1"
           id="path13212-2-1"
           cx="104.18705"
           cy="151.78377"
           rx="2.6069889"
           ry="2.6069891" />
      </g>
      <path
         style="fill:#008000;stroke:#00db00;stroke-width:1.37902;stroke-dasharray:none;stroke-opacity:1"
         d="M 72.213499,240.61862 C 62.896508,228.90529 55.381067,219.16243 55.51252,218.96785 c 0.339777,-0.50298 14.852484,-11.46071 15.484346,-11.69136 0.712196,-0.25997 34.548874,42.26355 34.026974,42.76268 -0.49909,0.47729 -15.757149,11.97314 -15.820154,11.91933 -0.02762,-0.0236 -7.673205,-9.62654 -16.990187,-21.33988 z"
         id="path13648-7-5"
         clip-path="url(#clipPath13979)"
         transform="translate(-47.432432,-63.851352)" />
      <path
         style="fill:#008000;stroke:#00db00;stroke-width:1.37902;stroke-dasharray:none;stroke-opacity:1"
         d="M 72.213499,240.61862 C 62.896508,228.90529 55.381067,219.16243 55.51252,218.96785 c 0.339777,-0.50298 14.852484,-11.46071 15.484346,-11.69136 0.712196,-0.25997 34.548874,42.26355 34.026974,42.76268 -0.49909,0.47729 -15.757149,11.97314 -15.820154,11.91933 -0.02762,-0.0236 -7.673205,-9.62654 -16.990187,-21.33988 z"
         id="path13648-7-5-8"
         clip-path="url(#clipPath13979-9)"
         transform="matrix(-1,0,0,1,222.93246,-65.3107)" />
      <path
         style="fill:#ffffff;stroke:#cccccc;stroke-width:0.72446;stroke-dasharray:none;stroke-opacity:1"
         d="m 55.307164,198.70374 c 6.134328,-5.01699 11.121281,-9.219 11.082131,-9.33782 -0.101175,-0.30715 -5.809489,-7.87984 -6.090481,-8.0797 -0.316722,-0.22527 -22.592724,17.98654 -22.401272,18.31423 0.183069,0.31335 6.187793,8.26198 6.225939,8.24144 0.01674,-0.009 5.049384,-4.12116 11.183683,-9.13815 z"
         id="path13650-2" />
      <path
         style="fill:#ffffff;stroke:#cccccc;stroke-width:0.72446;stroke-dasharray:none;stroke-opacity:1"
         d="m 120.33556,198.49706 c -5.91404,-5.27486 -10.71663,-9.68642 -10.67243,-9.80345 0.11422,-0.30254 6.14134,-7.62405 6.43062,-7.8117 0.32607,-0.2115 21.80241,18.93678 21.59711,19.25599 -0.19631,0.30523 -6.53564,7.98964 -6.57287,7.96748 -0.0164,-0.01 -4.86842,-4.33344 -10.78243,-9.60832 z"
         id="path13650-2-2" />
    </g>
  </g>
</svg>
