<?xml version="1.0" encoding="UTF-8" standalone="no"?>
<!-- Created with Inkscape (http://www.inkscape.org/) -->

<svg
   width="210mm"
   height="297mm"
   viewBox="0 0 210 297"
   version="1.1"
   id="svg5"
   inkscape:version="1.2.1 (9c6d41e410, 2022-07-14)"
   sodipodi:docname="Snowman.svg"
   xmlns:inkscape="http://www.inkscape.org/namespaces/inkscape"
   xmlns:sodipodi="http://sodipodi.sourceforge.net/DTD/sodipodi-0.dtd"
   xmlns="http://www.w3.org/2000/svg"
   xmlns:svg="http://www.w3.org/2000/svg">
  <sodipodi:namedview
     id="namedview7"
     pagecolor="#ffffff"
     bordercolor="#000000"
     borderopacity="0.25"
     inkscape:showpageshadow="2"
     inkscape:pageopacity="0.0"
     inkscape:pagecheckerboard="0"
     inkscape:deskcolor="#d1d1d1"
     inkscape:document-units="mm"
     showgrid="false"
     inkscape:zoom="0.72515432"
     inkscape:cx="165.48202"
     inkscape:cy="589.52969"
     inkscape:window-width="1920"
     inkscape:window-height="1001"
     inkscape:window-x="-9"
     inkscape:window-y="-9"
     inkscape:window-maximized="1"
     inkscape:current-layer="layer1" />
  <defs
     id="defs2" />
  <g
     inkscape:label="Layer 1"
     inkscape:groupmode="layer"
     id="layer1">
    <ellipse
       style="fill:#ffffff;stroke:#cccccc;stroke-width:4.86507;stroke-dasharray:none"
       id="path165-1-0"
       cx="108.36487"
       cy="144.66893"
       rx="81.924217"
       ry="76.468803" />
    <ellipse
       style="fill:#c83737;stroke:#aa0000;stroke-width:4.04646;stroke-dasharray:none;fill-opacity:1"
       id="path165-1"
       cx="108.54729"
       cy="145.03378"
       rx="65.549744"
       ry="66.114594" />
    <path
       style="fill:#ff0000;stroke:#aa0000;stroke-width:2.57676;stroke-dasharray:none"
       d="M 86.935995,91.123564 C 64.980879,67.706604 63.794117,66.145474 63.794117,66.145474 l 5.340433,-4.37116 24.03195,26.22699"
       id="path1282-7" />
    <ellipse
       style="fill:#ffffff;stroke:#aa0000;stroke-width:2.92766;stroke-dasharray:none"
       id="path4017"
       cx="89.964516"
       cy="96.243073"
       rx="7.5105009"
       ry="11.642955"
       transform="matrix(0.93265376,0.36077274,-0.30694038,0.95172875,0,0)" />
    <ellipse
       style="fill:#ffffff;stroke:#aa0000;stroke-width:2.87115;stroke-dasharray:none"
       id="path4017-0"
       cx="-118.3977"
       cy="170.28784"
       rx="7.2347527"
       ry="11.624592"
       transform="matrix(-0.92682249,0.37549977,0.29428655,0.95571723,0,0)" />
    <ellipse
       style="fill:#ffffff;stroke:#cccccc;stroke-width:3.089;stroke-dasharray:none"
       id="path165"
       cx="108.89459"
       cy="144.12163"
       rx="49.791988"
       ry="50.721706" />
    <path
       style="fill:#a05a2c;stroke:#803300;stroke-width:2.57676;stroke-dasharray:none"
       d="M 92.58489,97.172803 C 70.629774,73.755848 69.443012,72.194719 69.443012,72.194719 l 5.340433,-4.371166 24.03195,26.226989"
       id="path1282" />
    <g
       id="g10261"
       transform="translate(-80.23401,11.073987)">
      <path
         style="fill:#ff6600;stroke:#d45500;stroke-width:2.50915;stroke-dasharray:none"
         d="m 173.86262,57.869446 13.66112,-30.689119 10.33814,30.451218"
         id="path1181" />
      <path
         style="fill:#ff6600;stroke:#d45500;stroke-width:3.62788;stroke-dasharray:none"
         d="m 175.44279,83.92263 26.01982,0.321182"
         id="path1183-1" />
      <path
         style="fill:#ff6600;stroke:#d45500;stroke-width:3.08901;stroke-dasharray:none"
         d="m 174.00486,56.888516 11.34591,14.290532"
         id="path1183" />
      <path
         style="fill:#ff6600;stroke:#d45500;stroke-width:3.08901;stroke-dasharray:none"
         d="M 185.16869,69.249001 176.0475,85.052577"
         id="path1183-9" />
      <path
         style="fill:#ff6600;stroke:#d45500;stroke-width:3.08901;stroke-dasharray:none"
         d="m 207.95463,69.449563 -9.12119,15.803576"
         id="path1183-9-9" />
      <path
         style="fill:#ff6600;stroke:#d45500;stroke-width:3.08901;stroke-dasharray:none"
         d="m 196.99135,56.706085 11.34591,14.290532"
         id="path1183-8" />
      <path
         style="fill:#ff6600;fill-opacity:1;stroke:#ff6600;stroke-width:5.21203;stroke-dasharray:none"
         d="m 696.05874,309.93885 c -8.53267,-0.24195 -15.51394,-0.69403 -15.51394,-1.00462 0,-0.31059 5.61226,-10.23437 12.47169,-22.05284 7.30017,-12.57785 12.05663,-22.18891 11.47073,-23.17816 -0.55053,-0.92952 -8.11446,-10.68812 -16.80874,-21.68578 -8.69428,-10.99766 -16.41432,-20.77144 -17.15565,-21.71951 -1.0706,-1.36917 5.87011,-1.72378 33.73966,-1.72378 h 35.08754 l 17.45797,21.88377 c 9.60188,12.03607 17.82821,22.84861 18.28073,24.02786 0.4964,1.29358 -4.26301,10.93802 -11.9983,24.31329 l -12.82107,22.16921 -19.34834,-0.29477 c -10.64159,-0.16213 -26.32962,-0.49273 -34.86228,-0.73467 z"
         id="path10183"
         transform="scale(0.26458333)" />
    </g>
    <g
       id="g1605"
       transform="rotate(-1.2733735,13.37873,93.913137)">
      <path
         style="fill:#ff0000;stroke:#000000;stroke-width:4.15214;stroke-dasharray:none"
         d="m 76.955598,97.858576 63.330692,0.68126"
         id="path1568" />
      <path
         style="fill:#000000;stroke:#000000;stroke-width:2.24101;stroke-dasharray:none"
         d="m 77.879956,97.056062 c 9.23919,-15.288696 19.633279,0.72803 19.633279,0.72803"
         id="path1570" />
      <path
         style="fill:#000000;stroke:#000000;stroke-width:2.03579;stroke-dasharray:none"
         d="m 139.49039,97.300353 c -9.31488,-12.51418 -19.79412,0.59591 -19.79412,0.59591"
         id="path1570-0" />
    </g>
    <ellipse
       style="fill:#a05a2c;stroke:#803300;stroke-width:3.786;stroke-dasharray:none"
       id="path2517"
       cx="108.74784"
       cy="141.58569"
       rx="27.19869"
       ry="35.590584" />
    <ellipse
       style="fill:#a05a2c;stroke:#803300;stroke-width:2.49366;stroke-dasharray:none"
       id="path2517-8"
       cx="108.54728"
       cy="139.37837"
       rx="18.176056"
       ry="23.101732" />
    <ellipse
       style="fill:#ffffff;stroke:#000000;stroke-width:0.758752;stroke-dasharray:none"
       id="path4017-01"
       cx="49.315147"
       cy="-112.40261"
       rx="2.0737147"
       ry="2.832293"
       transform="matrix(-0.35893305,0.93336331,-0.91056142,-0.4133738,0,0)" />
    <ellipse
       style="fill:#ffffff;stroke:#000000;stroke-width:0.758752;stroke-dasharray:none"
       id="path4017-01-1"
       cx="30.383101"
       cy="-153.82561"
       rx="2.0737147"
       ry="2.832293"
       transform="matrix(-0.35893305,0.93336331,-0.91056142,-0.4133738,0,0)" />
    <path
       style="fill:#a05a2c;fill-opacity:1;stroke:#803300;stroke-width:0.763048;stroke-dasharray:none"
       d="m 96.811478,151.55582 c 23.126752,-3.635 0.406117,-26.27003 0.406117,-26.27003"
       id="path9229"
       inkscape:transform-center-x="2.2765149"
       inkscape:transform-center-y="-0.052053342" />
    <path
       style="fill:#a05a2c;fill-opacity:1;stroke:#803300;stroke-width:0.763048;stroke-dasharray:none"
       d="m 120.50206,151.73036 c -23.126752,-3.635 -0.40611,-26.27003 -0.40611,-26.27003"
       id="path9229-9"
       inkscape:transform-center-x="-2.2765149"
       inkscape:transform-center-y="-0.052053342" />
    <path
       style="fill:#aa4400;fill-opacity:1;stroke:#d45500;stroke-width:3.74192;stroke-dasharray:none"
       d="m 103.93417,81.999491 21.5954,0.117664"
       id="path10324" />
    <path
       style="fill:#aa4400;fill-opacity:1;stroke:#d45500;stroke-width:3.83254;stroke-dasharray:none"
       d="M 94.845629,68.864476 117.54198,68.98192"
       id="path10324-1" />
    <path
       style="fill:#aa4400;fill-opacity:1;stroke:#d45500;stroke-width:3.10095;stroke-dasharray:none"
       d="M 99.593235,56.129528 114.21757,56.24885"
       id="path10324-1-3" />
  </g>
</svg>
